<svg xmlns="http://www.w3.org/2000/svg" viewBox="0 0 640 512"><!--! Font Awesome Pro 6.4.2 by @fontawesome - https://fontawesome.com License - https://fontawesome.com/license (Commercial License) Copyright 2023 Fonticons, Inc.--><path d="M58.9 42.1c3-6.1 9.6-9.6 16.3-8.7L320 64l244.8-30.6c6.7-.8 13.3 2.7 16.3 8.7l41.7 83.4c9 17.9-.6 39.6-19.8 45.1l-163.4 46.7c-13.9 4-28.8-1.9-36.2-14.3L320 64l-83.4 139a31.93 31.93 0 0 1-36.2 14.3L37.1 170.6a31.97 31.97 0 0 1-19.8-45.1l41.6-83.4zM321.1 128l54.9 91.4a64 64 0 0 0 72.5 28.6L576 211.6v167c0 22-15 41.2-36.4 46.6l-204.1 51a62.58 62.58 0 0 1-31 0l-204.1-51A48.31 48.31 0 0 1 64 378.5v-167L191.6 248c27.8 8 57.6-3.8 72.5-28.6l54.8-91.4h2.2z"/></svg>