<svg xmlns="http://www.w3.org/2000/svg" viewBox="0 0 448 512"><!--! Font Awesome Pro 6.4.2 by @fontawesome - https://fontawesome.com License - https://fontawesome.com/license (Commercial License) Copyright 2023 Fonticons, Inc.--><path d="M304 128a80 80 0 1 0-160 0 80 80 0 1 0 160 0zm-208 0a128 128 0 1 1 256 0 128 128 0 1 1-256 0zM49.3 464h349.4c-8.9-63.3-63.3-112-129-112h-91.4c-65.7 0-120.1 48.7-129 112zM0 482.3C0 383.8 79.8 304 178.3 304h91.4c98.5 0 178.3 79.8 178.3 178.3a29.7 29.7 0 0 1-29.7 29.7H29.7A29.7 29.7 0 0 1 0 482.3z"/></svg>